<?xml version="1.0" encoding="UTF-8"?>
<!DOCTYPE svg PUBLIC "-//W3C//DTD SVG 1.1//EN" "http://www.w3.org/Graphics/SVG/1.1/DTD/svg11.dtd">
<!-- Creator: CorelDRAW 2018 (64 Bit) -->
<svg xmlns="http://www.w3.org/2000/svg" xml:space="preserve" width="40px" height="40px" version="1.1" style="shape-rendering:geometricPrecision; text-rendering:geometricPrecision; image-rendering:optimizeQuality; fill-rule:evenodd; clip-rule:evenodd"
viewBox="0 0 25.43 25.43"
 xmlns:xlink="http://www.w3.org/1999/xlink">
 <defs>
  <style type="text/css">
    .fil0 {fill:none}
    .fil1 {fill:#C52F33}
  </style>
 </defs>
 <g id="Camada_x0020_1">
  <metadata id="CorelCorpID_0Corel-Layer"/>
  <rect class="fil0" width="25.43" height="25.43" color="none"/>
  <g id="_1344133622976">
   <path class="fil1" d="M19.53 17.09c0,0 -0.04,0.05 -0.12,0.13 -0.04,0.04 -0.08,0.08 -0.14,0.14 -0.02,0.03 -0.05,0.06 -0.08,0.09 -0.04,0.04 -0.07,0.07 -0.11,0.11 -0.08,0.07 -0.16,0.15 -0.25,0.24 -0.1,0.08 -0.2,0.17 -0.31,0.26 -0.12,0.09 -0.24,0.18 -0.37,0.28 -0.07,0.05 -0.13,0.1 -0.21,0.15 -0.07,0.04 -0.14,0.09 -0.22,0.14 -0.15,0.1 -0.31,0.19 -0.47,0.29 -0.09,0.05 -0.18,0.1 -0.27,0.14 -0.08,0.05 -0.17,0.1 -0.27,0.14 -0.37,0.18 -0.78,0.33 -1.21,0.47 -0.43,0.13 -0.88,0.25 -1.35,0.32 -0.46,0.06 -0.94,0.1 -1.42,0.11l-0.02 0c-0.48,-0.01 -0.96,-0.05 -1.42,-0.11 -0.47,-0.08 -0.93,-0.19 -1.36,-0.32 -0.21,-0.07 -0.42,-0.13 -0.62,-0.22 -0.1,-0.04 -0.2,-0.08 -0.3,-0.12 -0.1,-0.05 -0.19,-0.09 -0.29,-0.13 -0.09,-0.05 -0.18,-0.09 -0.27,-0.14 -0.09,-0.05 -0.17,-0.09 -0.26,-0.14 -0.17,-0.1 -0.33,-0.19 -0.48,-0.29 -0.07,-0.05 -0.15,-0.1 -0.22,-0.14 -0.07,-0.05 -0.14,-0.1 -0.2,-0.15 -0.13,-0.1 -0.26,-0.19 -0.37,-0.28 -0.11,-0.1 -0.22,-0.18 -0.31,-0.26 -0.09,-0.09 -0.18,-0.17 -0.25,-0.24 -0.04,-0.04 -0.07,-0.07 -0.11,-0.1 -0.03,-0.04 -0.06,-0.07 -0.09,-0.1 -0.05,-0.06 -0.1,-0.11 -0.14,-0.15 -0.07,-0.08 -0.11,-0.12 -0.11,-0.12 -0.08,-0.08 -0.07,-0.2 0.01,-0.27 0.07,-0.07 0.18,-0.07 0.25,-0.01l0.01 0.01c0,0 0.04,0.03 0.13,0.1 0.04,0.03 0.09,0.08 0.15,0.13 0.03,0.02 0.06,0.05 0.09,0.08 0.04,0.02 0.07,0.05 0.11,0.08 0.08,0.06 0.17,0.13 0.26,0.2 0.1,0.07 0.2,0.15 0.32,0.22 0.22,0.16 0.49,0.32 0.78,0.49 0.15,0.08 0.3,0.16 0.46,0.24 0.09,0.04 0.17,0.08 0.25,0.12 0.09,0.04 0.17,0.08 0.26,0.11 0.09,0.04 0.18,0.07 0.28,0.11 0.09,0.04 0.18,0.07 0.28,0.1 0.19,0.07 0.38,0.13 0.58,0.19 0.41,0.11 0.83,0.2 1.26,0.26 0.44,0.06 0.88,0.09 1.33,0.09 0.44,0 0.89,-0.03 1.32,-0.09 0.43,-0.07 0.86,-0.15 1.26,-0.26 0.2,-0.07 0.4,-0.12 0.59,-0.19 0.09,-0.03 0.19,-0.06 0.28,-0.1 0.09,-0.04 0.18,-0.07 0.27,-0.11 0.09,-0.03 0.18,-0.07 0.26,-0.11 0.08,-0.04 0.17,-0.08 0.25,-0.12 0.16,-0.08 0.32,-0.16 0.47,-0.24 0.29,-0.17 0.55,-0.33 0.78,-0.49 0.11,-0.07 0.22,-0.15 0.31,-0.22 0.1,-0.07 0.18,-0.14 0.26,-0.2 0.04,-0.03 0.07,-0.05 0.11,-0.08 0.03,-0.03 0.07,-0.06 0.1,-0.08 0.06,-0.05 0.11,-0.1 0.15,-0.13 0.08,-0.07 0.13,-0.11 0.13,-0.11 0.08,-0.07 0.2,-0.06 0.27,0.03 0.07,0.07 0.06,0.18 0,0.25z"/>
   <g>
    <path class="fil1" d="M11.79 10.21c-0.46,0.18 -0.83,0.48 -1.11,0.72 -0.35,0.29 -0.67,0.62 -0.95,0.98 -0.18,0.23 -0.35,0.51 -0.46,0.77 -0.1,0.25 -0.07,0.51 0.16,0.83 0.3,0.42 0.78,0.84 1.22,1.1 0.5,0.28 0.82,0.38 1.32,0.13 0.47,-0.24 0.87,-0.61 1.08,-0.86 0.46,-0.54 0.65,-1.27 0.5,-1.96 -0.07,-0.29 -0.13,-0.51 -0.28,-0.78 -0.14,-0.25 -0.36,-0.52 -0.6,-0.76 -0.26,-0.25 -0.54,-0.31 -0.88,-0.17z"/>
    <path class="fil1" d="M14.82 6.78c-0.24,0.28 -0.54,0.66 -0.72,1.12 -0.13,0.33 -0.08,0.62 0.17,0.88 0.24,0.24 0.51,0.45 0.76,0.59 0.27,0.16 0.5,0.22 0.78,0.29 0.69,0.14 1.43,-0.04 1.96,-0.51 0.12,-0.09 0.26,-0.23 0.41,-0.4l0 -1.72c0,-0.87 -0.66,-1.59 -1.51,-1.68 -0.03,0 -0.06,0.01 -0.1,0.03 -0.25,0.1 -0.53,0.27 -0.76,0.46 -0.37,0.28 -0.7,0.59 -0.99,0.94z"/>
    <path class="fil1" d="M17.6 9.79c-0.63,0.4 -1.5,0.5 -2.27,0.27 -0.28,-0.08 -0.56,-0.22 -0.81,-0.35 -0.15,-0.07 -0.28,-0.14 -0.39,-0.18 -0.23,-0.09 -0.46,-0.05 -0.61,0.09 -0.15,0.15 -0.18,0.38 -0.09,0.62 0.04,0.1 0.1,0.23 0.18,0.38 0.12,0.25 0.26,0.54 0.34,0.82 0.24,0.77 0.13,1.64 -0.26,2.26 -0.37,0.58 -1.1,1.24 -1.63,1.48 -0.25,0.11 -0.5,0.16 -0.75,0.16 -0.23,0 -0.46,-0.05 -0.66,-0.15 -0.43,-0.22 -1.37,-0.88 -1.53,-1 -0.14,-0.11 -0.32,-0.12 -0.47,-0.04 -0.11,0.06 -0.19,0 -0.23,-0.05 -0.07,-0.07 -0.33,-0.35 -0.42,-0.46 -0.11,-0.13 -0.11,-0.21 0,-0.34 0.05,-0.05 0.09,-0.11 0.14,-0.16 0.08,-0.1 0.17,-0.19 0.25,-0.29 0.04,-0.05 0.11,-0.14 0.19,-0.25 0.28,-0.37 0.75,-0.99 1.19,-1.42 0.39,-0.4 0.71,-0.68 1.01,-0.9 0.35,-0.25 1.18,-0.74 1.25,-0.79 0.31,-0.21 0.54,-0.4 0.75,-0.61 0.2,-0.2 0.39,-0.43 0.61,-0.75 0.04,-0.07 0.53,-0.89 0.79,-1.24 0.22,-0.31 0.49,-0.62 0.89,-1.02 0.18,-0.18 0.39,-0.36 0.6,-0.54l-6.72 0c-0.93,0 -1.7,0.76 -1.7,1.7l0 7.53c0,0.94 0.77,1.7 1.7,1.7l7.53 0c0.94,0 1.7,-0.76 1.7,-1.7l0 -5.23c-0.19,0.18 -0.39,0.34 -0.58,0.46z"/>
   </g>
  </g>
 </g>
</svg>
