<?xml version="1.0" encoding="UTF-8"?>
<!DOCTYPE svg PUBLIC "-//W3C//DTD SVG 1.1//EN" "http://www.w3.org/Graphics/SVG/1.1/DTD/svg11.dtd">
<!-- Creator: CorelDRAW 2018 (64 Bit) -->
<?xml-stylesheet href="curtir 1.css" type="text/css"?>
<svg xmlns="http://www.w3.org/2000/svg" xml:space="preserve" width="40px" height="40px" version="1.1" style="shape-rendering:geometricPrecision; text-rendering:geometricPrecision; image-rendering:optimizeQuality; fill-rule:evenodd; clip-rule:evenodd"
viewBox="0 0 39.85 39.85"
 xmlns:xlink="http://www.w3.org/1999/xlink">
 <g id="Camada_x0020_1">
  <style type="text/css">
    .str0 {stroke:#373435;stroke-width:0.22;stroke-miterlimit:22.9256}
    .str1 {stroke:#373435;stroke-width:0.22;stroke-miterlimit:10}
    .fil0 {fill:none}
    .fil1 {fill:none;fill-rule:nonzero}
  </style>
  <metadata id="CorelCorpID_0Corel-Layer"/>
  <rect class="fil0" width="39.85" height="39.85"/>
  <g id="_1344121264048">
   <path class="fil1 str0" d="M29.65 26.17c0,0 -0.06,0.07 -0.17,0.18 -0.05,0.06 -0.11,0.13 -0.19,0.21 -0.04,0.04 -0.08,0.08 -0.13,0.13 -0.04,0.05 -0.09,0.1 -0.15,0.15 -0.11,0.1 -0.23,0.21 -0.36,0.34 -0.14,0.11 -0.29,0.24 -0.44,0.37 -0.16,0.14 -0.34,0.26 -0.53,0.41 -0.09,0.07 -0.19,0.14 -0.29,0.2 -0.1,0.07 -0.21,0.14 -0.31,0.21 -0.22,0.14 -0.45,0.28 -0.69,0.42 -0.12,0.06 -0.24,0.13 -0.37,0.19 -0.13,0.07 -0.26,0.14 -0.39,0.2 -0.53,0.26 -1.11,0.48 -1.72,0.68 -0.62,0.18 -1.27,0.34 -1.94,0.45 -0.66,0.09 -1.34,0.15 -2.02,0.15l-0.04 0c-0.68,0 -1.36,-0.06 -2.03,-0.16 -0.67,-0.1 -1.31,-0.26 -1.93,-0.44 -0.3,-0.11 -0.61,-0.2 -0.89,-0.32 -0.15,-0.06 -0.29,-0.11 -0.43,-0.18 -0.13,-0.06 -0.27,-0.12 -0.4,-0.18 -0.14,-0.06 -0.27,-0.13 -0.39,-0.2 -0.13,-0.06 -0.25,-0.13 -0.38,-0.19 -0.23,-0.15 -0.47,-0.28 -0.68,-0.42 -0.11,-0.07 -0.21,-0.14 -0.31,-0.21 -0.1,-0.07 -0.2,-0.13 -0.3,-0.2 -0.18,-0.15 -0.36,-0.27 -0.52,-0.41 -0.16,-0.13 -0.31,-0.26 -0.44,-0.37 -0.13,-0.12 -0.25,-0.24 -0.36,-0.34 -0.05,-0.05 -0.1,-0.1 -0.15,-0.14 -0.05,-0.05 -0.09,-0.1 -0.13,-0.14 -0.08,-0.08 -0.15,-0.15 -0.2,-0.21 -0.11,-0.12 -0.17,-0.18 -0.17,-0.18 -0.1,-0.11 -0.09,-0.29 0.02,-0.39 0.1,-0.1 0.26,-0.1 0.36,-0.01l0.02 0.01c0,0 0.06,0.05 0.18,0.15 0.05,0.05 0.12,0.11 0.21,0.18 0.04,0.03 0.09,0.07 0.13,0.11 0.05,0.04 0.11,0.08 0.16,0.12 0.12,0.09 0.24,0.19 0.37,0.29 0.14,0.1 0.29,0.2 0.45,0.32 0.33,0.22 0.7,0.45 1.12,0.69 0.21,0.12 0.44,0.23 0.66,0.35 0.12,0.05 0.24,0.1 0.36,0.16 0.12,0.06 0.25,0.11 0.37,0.16 0.13,0.06 0.26,0.11 0.39,0.16 0.13,0.05 0.27,0.1 0.4,0.14 0.27,0.1 0.55,0.18 0.84,0.27 0.58,0.16 1.18,0.28 1.8,0.37 0.62,0.09 1.25,0.13 1.89,0.13 0.63,0 1.27,-0.04 1.89,-0.13 0.62,-0.09 1.22,-0.21 1.8,-0.37 0.28,-0.09 0.56,-0.17 0.83,-0.27 0.14,-0.05 0.27,-0.09 0.41,-0.14 0.13,-0.05 0.25,-0.11 0.38,-0.16 0.13,-0.05 0.25,-0.1 0.37,-0.16 0.12,-0.06 0.24,-0.11 0.36,-0.17 0.23,-0.11 0.46,-0.22 0.66,-0.34 0.42,-0.24 0.8,-0.47 1.12,-0.69 0.16,-0.12 0.31,-0.22 0.45,-0.32 0.13,-0.1 0.26,-0.2 0.37,-0.28 0.05,-0.04 0.11,-0.09 0.16,-0.12 0.04,-0.04 0.09,-0.08 0.13,-0.12 0.09,-0.07 0.16,-0.13 0.22,-0.18 0.12,-0.1 0.18,-0.16 0.18,-0.16 0.12,-0.1 0.3,-0.08 0.4,0.04 0.09,0.11 0.08,0.26 -0.01,0.36z"/>
   <g>
    <path class="fil1 str1" d="M18.61 16.34c-0.66,0.27 -1.2,0.69 -1.59,1.03 -0.5,0.42 -0.95,0.89 -1.35,1.41 -0.27,0.33 -0.51,0.73 -0.66,1.09 -0.15,0.36 -0.1,0.74 0.23,1.2 0.42,0.59 1.1,1.19 1.74,1.56 0.7,0.41 1.16,0.54 1.88,0.18 0.67,-0.34 1.25,-0.87 1.54,-1.22 0.66,-0.77 0.93,-1.82 0.72,-2.81 -0.1,-0.4 -0.19,-0.72 -0.41,-1.11 -0.2,-0.36 -0.5,-0.74 -0.85,-1.08 -0.37,-0.36 -0.78,-0.44 -1.25,-0.25z"/>
    <path class="fil1 str1" d="M22.93 11.46c-0.34,0.39 -0.76,0.93 -1.03,1.59 -0.19,0.47 -0.11,0.88 0.25,1.25 0.34,0.35 0.72,0.65 1.08,0.85 0.39,0.22 0.71,0.31 1.12,0.41 0.98,0.21 2.03,-0.06 2.8,-0.72 0.16,-0.14 0.37,-0.34 0.57,-0.58l0 -2.45c0,-1.24 -0.94,-2.27 -2.15,-2.41 -0.04,0.02 -0.09,0.03 -0.14,0.05 -0.36,0.15 -0.76,0.39 -1.09,0.66 -0.52,0.4 -0.99,0.85 -1.41,1.35z"/>
    <path class="fil1 str1" d="M26.89 15.75c-0.89,0.57 -2.13,0.71 -3.23,0.38 -0.4,-0.11 -0.8,-0.32 -1.16,-0.49 -0.22,-0.11 -0.4,-0.2 -0.55,-0.26 -0.34,-0.13 -0.67,-0.08 -0.88,0.13 -0.21,0.21 -0.26,0.54 -0.13,0.88 0.06,0.14 0.15,0.33 0.26,0.55 0.17,0.36 0.38,0.76 0.49,1.16 0.33,1.1 0.19,2.34 -0.38,3.23 -0.52,0.83 -1.57,1.77 -2.32,2.11 -0.36,0.16 -0.72,0.23 -1.07,0.23 -0.33,0 -0.66,-0.07 -0.94,-0.21 -0.61,-0.31 -1.96,-1.25 -2.19,-1.43 -0.19,-0.16 -0.46,-0.18 -0.67,-0.05 -0.15,0.08 -0.26,-0.01 -0.33,-0.08 -0.1,-0.09 -0.46,-0.5 -0.6,-0.66 -0.16,-0.17 -0.16,-0.29 0,-0.48 0.07,-0.08 0.14,-0.15 0.21,-0.23 0.11,-0.14 0.24,-0.27 0.35,-0.41 0.06,-0.08 0.15,-0.2 0.27,-0.35 0.4,-0.53 1.07,-1.42 1.69,-2.04 0.57,-0.57 1.02,-0.96 1.45,-1.28 0.51,-0.36 1.68,-1.06 1.78,-1.13 0.45,-0.3 0.78,-0.57 1.07,-0.87 0.3,-0.29 0.57,-0.62 0.87,-1.07 0.07,-0.1 0.77,-1.27 1.13,-1.78 0.32,-0.43 0.71,-0.88 1.28,-1.45 0.26,-0.25 0.55,-0.51 0.86,-0.76l-9.6 0c-1.34,0 -2.42,1.08 -2.42,2.42l0 10.74c0,1.34 1.08,2.43 2.42,2.43l10.75 0c1.34,0 2.42,-1.09 2.42,-2.43l0 -7.45c-0.27,0.25 -0.55,0.48 -0.83,0.65z"/>
   </g>
  </g>
 </g>
</svg>
